/* --- Copyright University of Sussex 1991. All rights reserved. ----------
 * File:            C.x/x/ved/bitmaps/lib_48.xbm
 * Purpose:         Ved (X bitmap) icon - 48 pixel bitmap for libraries
 * Author:          Jonathan Meyer, Jun 17 1991
 */
#define lib_width 65
#define lib_height 58
static char lib_bits[] = {
   0x00, 0x00, 0x00, 0x00, 0x00, 0x00, 0x00, 0x00, 0x00, 0x00, 0xfc, 0xff,
   0xff, 0xff, 0xff, 0x00, 0x00, 0x00, 0x00, 0x13, 0x06, 0x06, 0x60, 0x80,
   0x01, 0x00, 0x00, 0xc0, 0x08, 0x81, 0x01, 0x10, 0x60, 0x00, 0x00, 0x00,
   0xf0, 0xff, 0xff, 0xff, 0xff, 0x3f, 0x01, 0x00, 0x00, 0x10, 0xfc, 0x41,
   0x00, 0x10, 0x28, 0x01, 0x00, 0x00, 0x10, 0xfc, 0x41, 0x00, 0x12, 0x08,
   0x01, 0x00, 0x00, 0x10, 0xfc, 0x41, 0xff, 0x13, 0x08, 0x01, 0x00, 0x00,
   0x10, 0xfc, 0x41, 0x08, 0x12, 0xc8, 0x01, 0x00, 0x00, 0x10, 0xfc, 0x41,
   0x08, 0x12, 0x88, 0x01, 0x00, 0x00, 0x10, 0xfc, 0x41, 0x10, 0x12, 0x08,
   0x01, 0x00, 0x00, 0x10, 0xfc, 0x41, 0xe0, 0x11, 0x08, 0x01, 0x00, 0x00,
   0x10, 0xfc, 0x41, 0x00, 0x10, 0x38, 0x01, 0x00, 0x00, 0x10, 0xfc, 0x41,
   0xf0, 0x11, 0x28, 0x01, 0x00, 0x00, 0x10, 0xfc, 0x41, 0x08, 0x12, 0x08,
   0x01, 0x00, 0x00, 0x10, 0xfc, 0x41, 0x08, 0x12, 0x08, 0x01, 0x00, 0x00,
   0x10, 0xfc, 0x41, 0x08, 0x12, 0xc8, 0x01, 0x00, 0x00, 0x10, 0xfc, 0x41,
   0xf0, 0x11, 0x88, 0x01, 0x00, 0x00, 0x10, 0xfc, 0x41, 0x00, 0x10, 0x08,
   0x01, 0x00, 0x00, 0x10, 0xfc, 0x41, 0x00, 0x11, 0x08, 0x01, 0x00, 0x00,
   0x10, 0xfc, 0x41, 0xff, 0x13, 0x38, 0x01, 0x00, 0x00, 0x10, 0xfc, 0x41,
   0x08, 0x11, 0x28, 0x01, 0x00, 0x00, 0x10, 0xfc, 0x41, 0x08, 0x12, 0x08,
   0x01, 0x00, 0x00, 0x10, 0xfc, 0x41, 0x10, 0x12, 0x08, 0x01, 0x00, 0x00,
   0x10, 0xfc, 0x41, 0xe0, 0x11, 0xc8, 0x01, 0x00, 0x00, 0x10, 0xfc, 0x41,
   0x00, 0x10, 0x88, 0x01, 0x00, 0x00, 0x10, 0xfc, 0x41, 0x00, 0x10, 0x08,
   0x01, 0x00, 0x00, 0x10, 0xfc, 0x41, 0x00, 0x12, 0x08, 0x01, 0x00, 0x00,
   0x10, 0xfc, 0x41, 0xfc, 0x17, 0x38, 0x01, 0x00, 0x00, 0x10, 0xfc, 0x41,
   0x00, 0x10, 0x08, 0x01, 0x00, 0x00, 0x10, 0xfc, 0x41, 0x00, 0x12, 0xc8,
   0x01, 0x00, 0x00, 0xd0, 0xfc, 0x41, 0xfc, 0x17, 0x88, 0x01, 0x00, 0x00,
   0xd8, 0xfc, 0x41, 0x00, 0x10, 0x48, 0x01, 0x00, 0x00, 0x14, 0xfc, 0x41,
   0x00, 0x10, 0xa8, 0x01, 0x00, 0x00, 0xfe, 0xff, 0xff, 0xff, 0xff, 0xdf,
   0x00, 0x00, 0x00, 0x52, 0x95, 0xaa, 0xaa, 0x2a, 0x55, 0x00, 0x00, 0x00,
   0xfe, 0xff, 0xff, 0xff, 0xff, 0x3f, 0x00, 0x00, 0x00, 0x00, 0x00, 0x00,
   0x00, 0x00, 0x00, 0x00, 0x00, 0x00, 0x00, 0x00, 0x00, 0x00, 0x00, 0x00,
   0x00, 0x00, 0x00, 0x00, 0x02, 0x01, 0x00, 0x00, 0x00, 0x00, 0x00, 0x00,
   0x00, 0x32, 0x01, 0x00, 0x00, 0x00, 0x00, 0x00, 0x00, 0x00, 0x02, 0x2d,
   0x31, 0x29, 0x01, 0x00, 0x00, 0x00, 0x00, 0x32, 0xd3, 0x4a, 0x56, 0x01,
   0x00, 0x00, 0x00, 0x00, 0x22, 0x51, 0x44, 0x42, 0x01, 0x00, 0x00, 0x00,
   0x00, 0x22, 0x51, 0x44, 0x82, 0x00, 0x00, 0x00, 0x00, 0x00, 0xaa, 0x49,
   0x64, 0x82, 0x00, 0x00, 0x00, 0x00, 0x00, 0x66, 0x47, 0x98, 0x62, 0x00,
   0x00, 0x00, 0x00, 0x00, 0x00, 0x00, 0x00, 0x00, 0x00, 0x00, 0x00, 0x00,
   0x00, 0x00, 0x00, 0x00, 0x00, 0x00, 0x00, 0x00, 0x00, 0x00, 0x00, 0x00,
   0x00, 0x00, 0x00, 0x00, 0x00, 0x00, 0x00, 0x00, 0x00, 0x00, 0x00, 0x00,
   0x00, 0x00, 0x00, 0x00, 0x00, 0x00, 0x00, 0x00, 0x00, 0x00, 0x00, 0x00,
   0x00, 0x00, 0x00, 0x00, 0x00, 0x00, 0x00, 0x00, 0x00, 0x00, 0x00, 0x00,
   0x00, 0x00, 0x00, 0x00, 0x00, 0x00, 0x00, 0x00, 0x00, 0x00, 0x00, 0x00,
   0x00, 0x00, 0x00, 0x00, 0x00, 0x00, 0x00, 0x00, 0x00, 0x00, 0x00, 0x00,
   0x00, 0x00, 0x00, 0x00, 0x00, 0x00, 0x00, 0x00, 0x00, 0x00, 0x00, 0x00,
   0x00, 0x00, 0x00, 0x00, 0x00, 0x00};
