/* --- Copyright University of Sussex 1991. All rights reserved. ----------
 * File:            C.x/x/ved/bitmaps/src_64.xbm
 * Purpose:         Ved (X bitmap) icon - 64 pixel bitmap for source code
 * Author:          Jonathan Meyer, Jun 17 1991
 * Documentation:
 * Related Files:
 */

#define src_width 65
#define src_height 58
static char src_bits[] = {
   0x00, 0xe0, 0x03, 0x00, 0x30, 0x00, 0x00, 0x00, 0x00, 0x00, 0x60, 0x06,
   0x00, 0x30, 0x00, 0x00, 0x00, 0x00, 0x00, 0x60, 0xc6, 0xe3, 0x33, 0x1e,
   0x1e, 0x00, 0x00, 0x00, 0x60, 0x66, 0xf6, 0x36, 0x33, 0x1b, 0x00, 0x00,
   0x00, 0xe0, 0x63, 0x66, 0x36, 0xb3, 0x19, 0x00, 0x00, 0x00, 0x60, 0x60,
   0x66, 0x36, 0xb3, 0x19, 0x00, 0x00, 0x00, 0x60, 0x60, 0x66, 0x36, 0xb3,
   0x1d, 0x00, 0x00, 0x00, 0x60, 0x60, 0x66, 0xf3, 0xb3, 0x1f, 0x00, 0x00,
   0x00, 0x60, 0xc0, 0xe3, 0x71, 0x1e, 0x1b, 0x00, 0x00, 0x00, 0x00, 0x00,
   0x60, 0x00, 0x00, 0x18, 0x00, 0x00, 0x00, 0x00, 0x00, 0x60, 0x00, 0x00,
   0x0c, 0x00, 0x00, 0x00, 0x00, 0x00, 0x60, 0x00, 0x00, 0x07, 0x00, 0x00,
   0x00, 0x00, 0x00, 0x00, 0x00, 0x00, 0x00, 0x00, 0x00, 0xc0, 0xff, 0xff,
   0xff, 0xff, 0xff, 0xff, 0x7f, 0x00, 0xc0, 0xff, 0xff, 0xff, 0xff, 0xff,
   0xff, 0x4f, 0x00, 0x40, 0x00, 0x00, 0x00, 0x00, 0x00, 0x00, 0x48, 0x00,
   0xc0, 0x0f, 0xe0, 0xff, 0xff, 0xff, 0xff, 0x7f, 0x00, 0x40, 0x00, 0x00,
   0x00, 0x00, 0x00, 0x00, 0x48, 0x00, 0x40, 0x00, 0x00, 0x00, 0x00, 0x00,
   0x00, 0x48, 0x00, 0x40, 0x00, 0x00, 0x00, 0x00, 0x00, 0x00, 0x48, 0x00,
   0x40, 0x00, 0x00, 0x00, 0x00, 0x00, 0x00, 0x48, 0x00, 0x40, 0x00, 0x00,
   0x00, 0x00, 0x00, 0x00, 0x48, 0x00, 0x40, 0xe1, 0xe7, 0x3f, 0xfb, 0x10,
   0x00, 0x48, 0x00, 0x40, 0x01, 0x00, 0x00, 0x00, 0x00, 0x00, 0x48, 0x00,
   0x40, 0x01, 0x38, 0x7f, 0x7f, 0x02, 0x00, 0x48, 0x00, 0x40, 0x01, 0x00,
   0x00, 0x00, 0x00, 0x00, 0x48, 0x00, 0x40, 0x01, 0xd8, 0xef, 0x01, 0x00,
   0x00, 0x48, 0x00, 0x40, 0x01, 0x00, 0x00, 0x00, 0x00, 0x00, 0x48, 0x00,
   0x40, 0x01, 0xc0, 0xff, 0xff, 0x03, 0x00, 0x48, 0x00, 0x40, 0x01, 0x00,
   0x00, 0x00, 0x00, 0x00, 0x48, 0x00, 0x40, 0x01, 0x40, 0xcf, 0xec, 0x01,
   0x00, 0x48, 0x00, 0x40, 0x01, 0x00, 0x00, 0x00, 0x00, 0x00, 0x78, 0x00,
   0x40, 0x01, 0xc0, 0xf7, 0x1c, 0x00, 0x00, 0x78, 0x00, 0x40, 0x01, 0x00,
   0x00, 0x00, 0x00, 0x00, 0x48, 0x00, 0x40, 0x01, 0xf8, 0x01, 0x00, 0x00,
   0x00, 0x78, 0x00, 0x40, 0x01, 0x00, 0x00, 0x00, 0x00, 0x00, 0x48, 0x00,
   0x40, 0xe1, 0x7f, 0x00, 0x00, 0x00, 0x00, 0x78, 0x00, 0x40, 0x00, 0x00,
   0x00, 0x00, 0x00, 0x00, 0x78, 0x00, 0x40, 0x00, 0x00, 0x00, 0x00, 0x00,
   0x00, 0x48, 0x00, 0x40, 0x00, 0x00, 0x00, 0x00, 0x00, 0x00, 0x48, 0x00,
   0x40, 0xfe, 0xf9, 0x03, 0x00, 0x00, 0x00, 0x48, 0x00, 0x40, 0x00, 0x00,
   0x00, 0x70, 0xc6, 0x78, 0x48, 0x00, 0x40, 0x00, 0x00, 0x00, 0x08, 0x49,
   0x09, 0x48, 0x00, 0x40, 0x7e, 0x6f, 0x00, 0x84, 0x50, 0x0a, 0x48, 0x00,
   0x40, 0x00, 0x00, 0x00, 0x84, 0x50, 0x3a, 0x48, 0x00, 0x40, 0x00, 0x00,
   0x00, 0x84, 0x50, 0x0a, 0x48, 0x00, 0x40, 0xfe, 0xbe, 0x01, 0x84, 0x50,
   0x0a, 0x48, 0x00, 0x40, 0x00, 0x00, 0x00, 0x08, 0x49, 0x09, 0x48, 0x00,
   0x40, 0xfe, 0x00, 0x00, 0x70, 0xc6, 0x78, 0x48, 0x00, 0x40, 0x00, 0x00,
   0x00, 0x00, 0x00, 0x00, 0x48, 0x00, 0x40, 0xfe, 0x00, 0x00, 0x00, 0x00,
   0x00, 0x48, 0x00, 0x40, 0x00, 0x00, 0x00, 0x00, 0x00, 0x00, 0x78, 0x00,
   0x40, 0x00, 0x00, 0x00, 0x00, 0x00, 0x00, 0x48, 0x00, 0xc0, 0xff, 0xff,
   0xff, 0xff, 0xff, 0xff, 0x7f, 0x00, 0x00, 0x00, 0x00, 0x00, 0x00, 0x00,
   0x00, 0x00, 0x00, 0x00, 0x00, 0x00, 0x00, 0x00, 0x00, 0x00, 0x00, 0x00,
   0x00, 0x00, 0x00, 0x00, 0x00, 0x00, 0x00, 0x00, 0x00, 0x00, 0x00, 0x00,
   0x00, 0x00, 0x00, 0x00, 0x00, 0x00};
