/* --- Copyright University of Sussex 1991. All rights reserved. ----------
 * File:            C.x/x/ved/bitmaps/src_48.xbm
 * Purpose:         Ved (X bitmap) icon - 48 pixel bitmap for code
 * Author:          Jonathan Meyer, Jun 17 1991
 */

#define src_width 65
#define src_height 58
static char src_bits[] = {
   0x00, 0x00, 0x00, 0x00, 0x00, 0x00, 0x00, 0x00, 0x00, 0xfe, 0xff, 0xff,
   0xff, 0xff, 0xff, 0x00, 0x00, 0x00, 0xfe, 0xff, 0xff, 0xff, 0xff, 0xbf,
   0x00, 0x00, 0x00, 0x82, 0x00, 0x00, 0x00, 0x00, 0xa0, 0x00, 0x00, 0x00,
   0xfe, 0x1c, 0xff, 0xff, 0xff, 0xff, 0x00, 0x00, 0x00, 0x82, 0x00, 0x00,
   0x00, 0x00, 0xa0, 0x00, 0x00, 0x00, 0x02, 0x00, 0x00, 0x00, 0x00, 0xe0,
   0x00, 0x00, 0x00, 0x02, 0x00, 0x00, 0x00, 0x00, 0xa0, 0x00, 0x00, 0x00,
   0x02, 0x00, 0x00, 0x00, 0x00, 0xe0, 0x00, 0x00, 0x00, 0x02, 0x00, 0x00,
   0x00, 0x00, 0xa0, 0x00, 0x00, 0x00, 0x0a, 0x3f, 0xff, 0xd9, 0xc7, 0xe0,
   0x00, 0x00, 0x00, 0x0a, 0x00, 0x00, 0x00, 0x00, 0xa0, 0x00, 0x00, 0x00,
   0x0a, 0xc0, 0xf9, 0xfb, 0x13, 0xe0, 0x00, 0x00, 0x00, 0x0a, 0x00, 0x00,
   0x00, 0x00, 0xa0, 0x00, 0x00, 0x00, 0x0a, 0xc0, 0x7e, 0x0f, 0x00, 0xe0,
   0x00, 0x00, 0x00, 0x0a, 0x00, 0x00, 0x00, 0x00, 0xa0, 0x00, 0x00, 0x00,
   0x0a, 0x00, 0xfe, 0xff, 0x1f, 0xe0, 0x00, 0x00, 0x00, 0x0a, 0x00, 0x00,
   0x00, 0x00, 0xa0, 0x00, 0x00, 0x00, 0x0a, 0x00, 0x7a, 0x66, 0x0f, 0xa0,
   0x00, 0x00, 0x00, 0x0a, 0x00, 0x00, 0x00, 0x00, 0xe0, 0x00, 0x00, 0x00,
   0x0a, 0x00, 0xbe, 0xe7, 0x00, 0xe0, 0x00, 0x00, 0x00, 0x0a, 0x00, 0x00,
   0x00, 0x00, 0xa0, 0x00, 0x00, 0x00, 0x0a, 0xc0, 0x0f, 0x00, 0x00, 0xe0,
   0x00, 0x00, 0x00, 0x0a, 0x00, 0x00, 0x00, 0x00, 0xe0, 0x00, 0x00, 0x00,
   0x0a, 0xff, 0x03, 0x00, 0x00, 0xa0, 0x00, 0x00, 0x00, 0x02, 0x00, 0x00,
   0x00, 0x10, 0xa0, 0x00, 0x00, 0x00, 0x02, 0x00, 0xe0, 0x01, 0x10, 0xe0,
   0x00, 0x00, 0x00, 0x02, 0x00, 0x10, 0x00, 0x10, 0xa0, 0x00, 0x00, 0x00,
   0xf2, 0xcf, 0x08, 0x38, 0x1c, 0xe3, 0x00, 0x00, 0x00, 0x02, 0x00, 0x08,
   0x44, 0x92, 0xa4, 0x00, 0x00, 0x00, 0x02, 0x00, 0x08, 0x44, 0x51, 0xe2,
   0x00, 0x00, 0x00, 0xf2, 0x7b, 0x08, 0x44, 0x51, 0xa1, 0x00, 0x00, 0x00,
   0x02, 0x00, 0x08, 0x44, 0xd1, 0xe0, 0x00, 0x00, 0x00, 0x02, 0x00, 0x10,
   0x44, 0x51, 0xa2, 0x00, 0x00, 0x00, 0xf2, 0xf7, 0xe1, 0x39, 0x8e, 0xe1,
   0x00, 0x00, 0x00, 0x02, 0x00, 0x00, 0x00, 0x00, 0xa0, 0x00, 0x00, 0x00,
   0x02, 0x00, 0x00, 0x00, 0x00, 0xe0, 0x00, 0x00, 0x00, 0xf2, 0x03, 0x00,
   0x00, 0x00, 0xa0, 0x00, 0x00, 0x00, 0x02, 0x00, 0x00, 0x00, 0x00, 0xe0,
   0x00, 0x00, 0x00, 0x02, 0x00, 0x00, 0x00, 0x00, 0xa0, 0x00, 0x00, 0x00,
   0x02, 0x00, 0x00, 0x00, 0x00, 0xe0, 0x00, 0x00, 0x00, 0xfe, 0xff, 0xff,
   0xff, 0xff, 0xff, 0x00, 0x00, 0x00, 0x00, 0x00, 0x00, 0x00, 0x00, 0x00,
   0x00, 0x00, 0x00, 0x00, 0x00, 0x00, 0x00, 0x00, 0x00, 0x00, 0x00, 0x00,
   0x00, 0x00, 0x00, 0x00, 0x00, 0x00, 0x00, 0x00, 0x00, 0x00, 0x00, 0x00,
   0x00, 0x00, 0x00, 0x00, 0x00, 0x00, 0x00, 0x00, 0x00, 0x00, 0x00, 0x00,
   0x00, 0x00, 0x00, 0x00, 0x00, 0x00, 0x00, 0x00, 0x00, 0x00, 0x00, 0x00,
   0x00, 0x00, 0x00, 0x00, 0x00, 0x00, 0x00, 0x00, 0x00, 0x00, 0x00, 0x00,
   0x00, 0x00, 0x00, 0x00, 0x00, 0x00, 0x00, 0x00, 0x00, 0x00, 0x00, 0x00,
   0x00, 0x00, 0x00, 0x00, 0x00, 0x00, 0x00, 0x00, 0x00, 0x00, 0x00, 0x00,
   0x00, 0x00, 0x00, 0x00, 0x00, 0x00, 0x00, 0x00, 0x00, 0x00, 0x00, 0x00,
   0x00, 0x00, 0x00, 0x00, 0x00, 0x00, 0x00, 0x00, 0x00, 0x00, 0x00, 0x00,
   0x00, 0x00, 0x00, 0x00, 0x00, 0x00, 0x00, 0x00, 0x00, 0x00, 0x00, 0x00,
   0x00, 0x00, 0x00, 0x00, 0x00, 0x00, 0x00, 0x00, 0x00, 0x00, 0x00, 0x00,
   0x00, 0x00, 0x00, 0x00, 0x00, 0x00};
