/* --- Copyright University of Sussex 1991. All rights reserved. ----------
 * File:            C.x/x/ved/bitmaps/tmp_48.xbm
 * Purpose:         Ved (X bitmap) icon - 48 pixel bitmap for nonwriteables
 * Author:          Jonathan Meyer, Jun 17 1991
 */
#define tmp_width 65
#define tmp_height 58
static char tmp_bits[] = {
   0x00, 0x00, 0x00, 0x00, 0x00, 0x00, 0x00, 0x00, 0x00, 0xfe, 0xff, 0xff,
   0xff, 0xff, 0xff, 0x00, 0x00, 0x00, 0xfe, 0xff, 0xff, 0xff, 0xff, 0xff,
   0x00, 0x00, 0x00, 0x06, 0x00, 0x00, 0x00, 0x00, 0xf0, 0x00, 0x00, 0x00,
   0xc6, 0xb6, 0x6d, 0xdb, 0xe6, 0xe7, 0x00, 0x00, 0x00, 0x26, 0x00, 0x00,
   0x00, 0x48, 0xe5, 0x00, 0x00, 0x00, 0x26, 0x00, 0x00, 0x00, 0x40, 0xe5,
   0x00, 0x00, 0x00, 0x06, 0x00, 0x00, 0x00, 0x48, 0xe5, 0x00, 0x00, 0x00,
   0x26, 0x00, 0x00, 0x00, 0x48, 0xe5, 0x00, 0x00, 0x00, 0x26, 0xfe, 0x00,
   0x00, 0x40, 0xe5, 0x00, 0x00, 0x00, 0x06, 0x10, 0x00, 0x00, 0x48, 0xe5,
   0x00, 0x00, 0x00, 0x26, 0x90, 0xee, 0x70, 0x48, 0xe5, 0x00, 0x00, 0x00,
   0x26, 0x10, 0x11, 0x4d, 0x40, 0xe5, 0x00, 0x00, 0x00, 0x26, 0x10, 0x11,
   0x45, 0x48, 0xe5, 0x00, 0x00, 0x00, 0x06, 0x10, 0x11, 0x45, 0x48, 0xe5,
   0x00, 0x00, 0x00, 0x26, 0x10, 0x11, 0x25, 0x40, 0xe5, 0x00, 0x00, 0x00,
   0x26, 0x10, 0x11, 0x15, 0x48, 0xe5, 0x00, 0x00, 0x00, 0x06, 0x10, 0x11,
   0x0d, 0x48, 0xe5, 0x00, 0x00, 0x00, 0x26, 0x00, 0x00, 0x04, 0x40, 0xe5,
   0x00, 0x00, 0x00, 0x26, 0x00, 0x00, 0x04, 0x48, 0xe5, 0x00, 0x00, 0x00,
   0x06, 0x00, 0x00, 0x04, 0x48, 0xe5, 0x00, 0x00, 0x00, 0x26, 0x00, 0x00,
   0x04, 0x40, 0xe5, 0x00, 0x00, 0x00, 0x26, 0x00, 0x00, 0x04, 0x48, 0xe5,
   0x00, 0x00, 0x00, 0x06, 0x00, 0x00, 0x00, 0x48, 0xe5, 0x00, 0x00, 0x00,
   0xa6, 0xf3, 0xfb, 0xdc, 0x43, 0xe5, 0x00, 0x00, 0x00, 0x26, 0x00, 0x00,
   0x00, 0x48, 0xe5, 0x00, 0x00, 0x00, 0x06, 0x00, 0x00, 0x00, 0x48, 0xe5,
   0x00, 0x00, 0x00, 0x26, 0x00, 0x00, 0x00, 0x40, 0xe5, 0x00, 0x00, 0x00,
   0xa6, 0xfb, 0x71, 0x5f, 0x4b, 0xe5, 0x00, 0x00, 0x00, 0x06, 0x00, 0x00,
   0x00, 0x48, 0xe5, 0x00, 0x00, 0x00, 0x26, 0x00, 0x00, 0x00, 0x40, 0xe5,
   0x00, 0x00, 0x00, 0x26, 0x00, 0x00, 0x00, 0x48, 0xe5, 0x00, 0x00, 0x00,
   0xa6, 0xfb, 0xfe, 0x4a, 0x43, 0xe5, 0x00, 0x00, 0x00, 0x26, 0x00, 0x00,
   0x00, 0x48, 0xe5, 0x00, 0x00, 0x00, 0x06, 0x00, 0x00, 0x00, 0x48, 0xe5,
   0x00, 0x00, 0x00, 0x26, 0x00, 0x00, 0x00, 0x40, 0xe5, 0x00, 0x00, 0x00,
   0x26, 0x00, 0x00, 0x00, 0x48, 0xe5, 0x00, 0x00, 0x00, 0x06, 0x00, 0x00,
   0x00, 0x48, 0xe5, 0x00, 0x00, 0x00, 0x46, 0xdb, 0xb6, 0x6d, 0xe3, 0xe7,
   0x00, 0x00, 0x00, 0x06, 0x00, 0x00, 0x00, 0x00, 0xf0, 0x00, 0x00, 0x00,
   0xfe, 0xff, 0xff, 0xff, 0xff, 0xff, 0x00, 0x00, 0x00, 0xfe, 0xff, 0xff,
   0xff, 0xff, 0xff, 0x00, 0x00, 0x00, 0x00, 0x00, 0x00, 0x00, 0x00, 0x00,
   0x00, 0x00, 0x00, 0x00, 0x00, 0x00, 0x00, 0x00, 0x00, 0x00, 0x00, 0x00,
   0x00, 0x00, 0x00, 0x00, 0x00, 0x00, 0x00, 0x00, 0x00, 0x00, 0x00, 0x00,
   0x00, 0x00, 0x00, 0x00, 0x00, 0x00, 0x00, 0x00, 0x00, 0x00, 0x00, 0x00,
   0x00, 0x00, 0x00, 0x00, 0x00, 0x00, 0x00, 0x00, 0x00, 0x00, 0x00, 0x00,
   0x00, 0x00, 0x00, 0x00, 0x00, 0x00, 0x00, 0x00, 0x00, 0x00, 0x00, 0x00,
   0x00, 0x00, 0x00, 0x00, 0x00, 0x00, 0x00, 0x00, 0x00, 0x00, 0x00, 0x00,
   0x00, 0x00, 0x00, 0x00, 0x00, 0x00, 0x00, 0x00, 0x00, 0x00, 0x00, 0x00,
   0x00, 0x00, 0x00, 0x00, 0x00, 0x00, 0x00, 0x00, 0x00, 0x00, 0x00, 0x00,
   0x00, 0x00, 0x00, 0x00, 0x00, 0x00, 0x00, 0x00, 0x00, 0x00, 0x00, 0x00,
   0x00, 0x00, 0x00, 0x00, 0x00, 0x00, 0x00, 0x00, 0x00, 0x00, 0x00, 0x00,
   0x00, 0x00, 0x00, 0x00, 0x00, 0x00, 0x00, 0x00, 0x00, 0x00, 0x00, 0x00,
   0x00, 0x00, 0x00, 0x00, 0x00, 0x00};
