/* --- Copyright University of Sussex 1991. All rights reserved. ----------
 * File:            C.x/x/ved/bitmaps/ved_48.xbm
 * Purpose:         Ved (X bitmap) icon - 48 pixel bitmap for general files
 * Author:          Jonathan Meyer, Jun 17 1991
 */

#define ved_width 65
#define ved_height 58
static char ved_bits[] = {
   0x00, 0x00, 0x00, 0x00, 0x00, 0x00, 0x00, 0x00, 0x00, 0x00, 0x00, 0x00,
   0x00, 0x00, 0x00, 0x00, 0x00, 0x00, 0xff, 0xff, 0xff, 0xff, 0xff, 0xff,
   0x03, 0x00, 0x00, 0x01, 0x00, 0x00, 0x00, 0x00, 0x00, 0x02, 0x00, 0x00,
   0x01, 0x00, 0x00, 0x00, 0x00, 0x00, 0x02, 0x00, 0x00, 0x01, 0x00, 0x00,
   0x00, 0x00, 0x00, 0x02, 0x00, 0x00, 0x01, 0x00, 0x00, 0x00, 0x00, 0x00,
   0x02, 0x00, 0x00, 0x01, 0x00, 0x00, 0x00, 0x40, 0x00, 0x02, 0x00, 0x00,
   0x61, 0x00, 0x00, 0x00, 0xe0, 0x00, 0x02, 0x00, 0x00, 0xc1, 0x00, 0x00,
   0x00, 0xe0, 0x00, 0x02, 0x00, 0x00, 0xc1, 0x01, 0x06, 0x00, 0xe0, 0x00,
   0x02, 0x00, 0x00, 0x81, 0x01, 0x07, 0x00, 0x60, 0x00, 0x02, 0x00, 0x00,
   0x81, 0x03, 0x03, 0x00, 0xe0, 0x00, 0x02, 0x00, 0x00, 0x01, 0x03, 0x03,
   0x00, 0xe0, 0x00, 0x02, 0x00, 0x00, 0x01, 0x83, 0xc3, 0x03, 0xfe, 0x00,
   0x02, 0x00, 0x00, 0x01, 0x86, 0x61, 0x83, 0xff, 0x00, 0x02, 0x00, 0x00,
   0x01, 0xce, 0x30, 0x86, 0xe7, 0x00, 0x02, 0x00, 0x00, 0x01, 0xcc, 0x18,
   0x83, 0xe1, 0x00, 0x02, 0x00, 0x00, 0x01, 0xdc, 0xd8, 0xc3, 0xe1, 0x00,
   0x02, 0x00, 0x00, 0x01, 0xd8, 0xf8, 0xf0, 0xe0, 0x00, 0x02, 0x00, 0x00,
   0x01, 0xf8, 0x18, 0xd8, 0xe1, 0x00, 0x02, 0x00, 0x00, 0x01, 0xf0, 0x38,
   0x8c, 0xb1, 0x01, 0x02, 0x00, 0x00, 0x01, 0x70, 0x30, 0x0e, 0xbf, 0x1d,
   0x02, 0x00, 0x00, 0x01, 0x60, 0x60, 0x06, 0x98, 0x13, 0x02, 0x00, 0x00,
   0x01, 0x60, 0xc0, 0x03, 0x00, 0x1f, 0x02, 0x00, 0x00, 0x01, 0x00, 0x00,
   0x00, 0xe0, 0x00, 0x02, 0x00, 0x00, 0x01, 0x00, 0x00, 0x00, 0x38, 0x00,
   0x02, 0x00, 0x00, 0x01, 0x00, 0x00, 0x00, 0x0f, 0x00, 0x02, 0x00, 0x00,
   0x01, 0x00, 0x00, 0x80, 0x01, 0x00, 0x02, 0x00, 0x00, 0x01, 0x00, 0x00,
   0x7e, 0x00, 0x00, 0x02, 0x00, 0x00, 0x01, 0x00, 0x80, 0x01, 0x00, 0x00,
   0x02, 0x00, 0x00, 0x01, 0x00, 0x80, 0x07, 0x00, 0x00, 0x02, 0x00, 0x00,
   0x01, 0x00, 0x00, 0x3f, 0x00, 0x00, 0x02, 0x00, 0x00, 0x01, 0x00, 0x00,
   0x7f, 0x00, 0x00, 0x02, 0x00, 0x00, 0x01, 0x00, 0x00, 0x9e, 0x03, 0x00,
   0x02, 0x00, 0x00, 0x01, 0x00, 0x00, 0x0e, 0x1c, 0x00, 0x02, 0x00, 0x00,
   0x01, 0x00, 0x00, 0x06, 0x60, 0x00, 0x02, 0x00, 0x00, 0x01, 0x00, 0x00,
   0x04, 0xe0, 0x00, 0x02, 0x00, 0x00, 0xff, 0xff, 0xff, 0x09, 0x30, 0xfd,
   0x03, 0x00, 0x00, 0x00, 0x00, 0x00, 0x10, 0x78, 0x02, 0x00, 0x00, 0x00,
   0x00, 0x00, 0x00, 0x10, 0xcc, 0x04, 0x00, 0x00, 0x00, 0x00, 0x00, 0x00,
   0x20, 0x8e, 0x09, 0x00, 0x00, 0x00, 0x00, 0x00, 0x00, 0x20, 0x23, 0x12,
   0x00, 0x00, 0x00, 0x00, 0x00, 0x00, 0xc0, 0x12, 0x25, 0x00, 0x00, 0x00,
   0x00, 0x00, 0x00, 0x40, 0x45, 0x4c, 0x00, 0x00, 0x00, 0x00, 0x00, 0x00,
   0x80, 0x8a, 0x98, 0x00, 0x00, 0x00, 0x00, 0x00, 0x00, 0x00, 0x35, 0x22,
   0x01, 0x00, 0x00, 0x00, 0x00, 0x00, 0x00, 0x2a, 0x51, 0x02, 0x00, 0x00,
   0x00, 0x00, 0x00, 0x00, 0x54, 0xc4, 0x04, 0x00, 0x00, 0x00, 0x00, 0x00,
   0x00, 0xa8, 0x09, 0x09, 0x00, 0x00, 0x00, 0x00, 0x00, 0x00, 0x50, 0x59,
   0x13, 0x00, 0x00, 0x00, 0x00, 0x00, 0x00, 0x00, 0x00, 0x00, 0x00, 0x00,
   0x00, 0x00, 0x00, 0x00, 0x00, 0x00, 0x00, 0x00, 0x00, 0x00, 0x00, 0x00,
   0x00, 0x00, 0x00, 0x00, 0x00, 0x00, 0x00, 0x00, 0x00, 0x00, 0x00, 0x00,
   0x00, 0x00, 0x00, 0x00, 0x00, 0x00, 0x00, 0x00, 0x00, 0x00, 0x00, 0x00,
   0x00, 0x00, 0x00, 0x00, 0x00, 0x00, 0x00, 0x00, 0x00, 0x00, 0x00, 0x00,
   0x00, 0x00, 0x00, 0x00, 0x00, 0x00};
