/* --- Copyright University of Sussex 1991. All rights reserved. ----------
 * File:            C.x/x/ved/bitmaps/ved_64.xbm
 * Purpose:         Ved (X bitmap) icon - 64 pixel bitmap for general files
 * Author:          Jonathan Meyer, Jun 17 1991
 */

#define ved_width 65
#define ved_height 58
static char ved_bits[] = {
   0x00, 0xf8, 0x00, 0x00, 0x0c, 0x00, 0x00, 0x00, 0x00, 0x00, 0x98, 0x01,
   0x00, 0x0c, 0x00, 0x00, 0x00, 0x00, 0x00, 0x98, 0xf1, 0xf8, 0x8c, 0x87,
   0x07, 0x00, 0x00, 0x00, 0x98, 0x99, 0xbd, 0xcd, 0xcc, 0x06, 0x00, 0x00,
   0x00, 0xf8, 0x98, 0x99, 0xcd, 0x6c, 0x06, 0x00, 0x00, 0x00, 0x18, 0x98,
   0x99, 0xcd, 0x6c, 0x06, 0x00, 0x00, 0x00, 0x18, 0x98, 0x99, 0xcd, 0x6c,
   0x07, 0x00, 0x00, 0x00, 0x18, 0x98, 0xd9, 0xfc, 0xec, 0x07, 0x00, 0x00,
   0x00, 0x18, 0xf0, 0x78, 0x9c, 0xc7, 0x06, 0x00, 0x00, 0x00, 0x00, 0x00,
   0x18, 0x00, 0x00, 0x06, 0x00, 0x00, 0x00, 0x00, 0x00, 0x18, 0x00, 0x00,
   0x03, 0x00, 0x00, 0x00, 0x00, 0x00, 0x18, 0x00, 0xc0, 0x01, 0x00, 0x00,
   0xf0, 0xff, 0xff, 0xff, 0xff, 0xff, 0xff, 0x0f, 0x00, 0x10, 0x00, 0x00,
   0x00, 0x00, 0x00, 0x00, 0x08, 0x00, 0x10, 0x00, 0x00, 0x00, 0x00, 0x08,
   0x00, 0x08, 0x00, 0x10, 0x0c, 0x00, 0x00, 0x00, 0x1c, 0x00, 0x08, 0x00,
   0x10, 0x18, 0x00, 0x00, 0x00, 0x1c, 0x00, 0x08, 0x00, 0x10, 0x38, 0xc0,
   0x00, 0x00, 0x1c, 0x00, 0x08, 0x00, 0x10, 0x30, 0xe0, 0x00, 0x00, 0x0c,
   0x00, 0x08, 0x00, 0x10, 0x70, 0x60, 0x00, 0x00, 0x1c, 0x00, 0x08, 0x00,
   0x10, 0x60, 0x60, 0x00, 0x00, 0x1c, 0x00, 0x08, 0x00, 0x10, 0x60, 0x70,
   0x78, 0xc0, 0x1f, 0x00, 0x08, 0x00, 0x10, 0xc0, 0x30, 0x6c, 0xf0, 0x1f,
   0x00, 0x08, 0x00, 0x10, 0xc0, 0x19, 0xc6, 0xf0, 0x1c, 0x00, 0x08, 0x00,
   0x10, 0x80, 0x19, 0x63, 0x30, 0x1c, 0x00, 0x08, 0x00, 0x10, 0x80, 0x1b,
   0x7b, 0x38, 0x1c, 0x00, 0x08, 0x00, 0x10, 0x00, 0x1b, 0x1f, 0x1e, 0x1c,
   0x00, 0x08, 0x00, 0x10, 0x00, 0x1f, 0x03, 0x3b, 0x1c, 0x00, 0x08, 0x00,
   0x10, 0x00, 0x1e, 0x87, 0x31, 0x36, 0x00, 0x08, 0x00, 0x10, 0x00, 0x0e,
   0xc6, 0xe1, 0xb7, 0x03, 0x08, 0x00, 0x10, 0x00, 0x0c, 0xcc, 0x00, 0x73,
   0x02, 0x08, 0x00, 0x10, 0x00, 0x0c, 0x78, 0x00, 0xe0, 0x03, 0x08, 0x00,
   0x10, 0x00, 0x00, 0x00, 0x00, 0x1c, 0x00, 0x08, 0x00, 0x10, 0x00, 0x00,
   0x00, 0x00, 0x07, 0x00, 0x08, 0x00, 0x10, 0x00, 0x00, 0x00, 0xe0, 0x01,
   0x00, 0x08, 0x00, 0x10, 0x00, 0x00, 0x00, 0x30, 0x00, 0x00, 0x08, 0x00,
   0x10, 0x00, 0x00, 0x00, 0x18, 0x00, 0x00, 0x08, 0x00, 0x10, 0x00, 0x00,
   0x00, 0x0c, 0x00, 0x00, 0x08, 0x00, 0x10, 0x00, 0x00, 0x00, 0x1c, 0x00,
   0x00, 0x08, 0x00, 0x10, 0x00, 0x00, 0x00, 0x78, 0x00, 0x00, 0x08, 0x00,
   0x10, 0x00, 0x00, 0x00, 0xf8, 0x03, 0x00, 0x08, 0x00, 0x10, 0x00, 0x00,
   0x00, 0xf0, 0x1c, 0x00, 0x08, 0x00, 0x10, 0x00, 0x00, 0x00, 0x70, 0xe0,
   0x00, 0x08, 0x00, 0x10, 0x00, 0x00, 0x00, 0x20, 0x00, 0x03, 0x08, 0x00,
   0x10, 0x00, 0x00, 0x00, 0x20, 0x00, 0x07, 0x08, 0x00, 0xf0, 0xff, 0xff,
   0xff, 0x4f, 0x80, 0xe9, 0x0f, 0x00, 0x00, 0x00, 0x00, 0x00, 0x80, 0xc0,
   0x13, 0x00, 0x00, 0x00, 0x00, 0x00, 0x00, 0x80, 0x60, 0x26, 0x00, 0x00,
   0x00, 0x00, 0x00, 0x00, 0x00, 0x71, 0x4c, 0x00, 0x00, 0x00, 0x00, 0x00,
   0x00, 0x00, 0x19, 0x91, 0x00, 0x00, 0x00, 0x00, 0x00, 0x00, 0x00, 0x96,
   0x28, 0x01, 0x00, 0x00, 0x00, 0x00, 0x00, 0x00, 0x2a, 0x62, 0x02, 0x00,
   0x00, 0x00, 0x00, 0x00, 0x00, 0x54, 0xc4, 0x04, 0x00, 0x00, 0x00, 0x00,
   0x00, 0x00, 0xa8, 0x11, 0x09, 0x00, 0x00, 0x00, 0x00, 0x00, 0x00, 0x50,
   0x89, 0x12, 0x00, 0x00, 0x00, 0x00, 0x00, 0x00, 0xa0, 0x22, 0x26, 0x00,
   0x00, 0x00, 0x00, 0x00, 0x00, 0x40, 0x4d, 0x48, 0x00, 0x00, 0x00, 0x00,
   0x00, 0x00, 0x80, 0xca, 0x8a, 0x00};
